<svg xmlns="http://www.w3.org/2000/svg" width="103" height="103" viewBox="0 0 103 103" fill="none"><rect width="103" height="103" rx="15" fill="#742092"></rect><path d="M72.5972 40.709C72.5972 42.7759 72.6478 44.8449 72.5797 46.9096C72.5344 48.2851 72.3501 49.6595 72.1737 51.0269C71.9159 53.0277 71.3981 54.971 70.7323 56.8722C69.3419 60.8408 67.3768 64.4978 64.7388 67.7809C62.8664 70.112 60.7569 72.2071 58.4316 74.087C57.0259 75.2238 55.5737 76.2945 54.0305 77.2374C53.5484 77.532 53.0487 77.7999 52.5432 78.0524C51.9199 78.364 51.311 78.2602 50.7192 77.9326C49.2852 77.1378 47.93 76.2247 46.6153 75.2467C43.7936 73.1468 41.2185 70.7869 39.0206 68.0323C35.9543 64.1889 33.6999 59.9193 32.3112 55.1963C31.7769 53.3793 31.4168 51.5282 31.1989 49.6488C30.9794 47.7518 30.9757 45.8458 30.9805 43.9398C30.988 40.7282 30.9821 37.5165 30.9826 34.3049C30.9826 33.3833 31.2495 32.9976 32.0949 32.6476C35.729 31.1422 39.362 29.6336 42.995 28.1245C45.5041 27.082 48.0147 26.0432 50.5194 24.9901C51.2311 24.6907 51.9045 24.7104 52.6188 25.0055C56.7696 26.7192 60.9279 28.4148 65.0856 30.1131C67.2335 30.9904 69.3813 31.8656 71.535 32.7281C72.2084 32.9976 72.5498 33.4792 72.5525 34.1887C72.5605 36.3622 72.5557 38.5356 72.5557 40.709C72.5685 40.709 72.5829 40.709 72.5972 40.709ZM33.0085 40.9008C33.0186 40.9008 33.0293 40.9008 33.0394 40.9008C33.0394 41.5837 33.0362 42.2672 33.0399 42.9501C33.0527 45.2093 32.9877 47.4738 33.3265 49.7175C33.5225 51.0157 33.7148 52.3214 34.0275 53.5945C35.3795 59.1026 38.0862 63.8964 41.8652 68.0909C44.0141 70.4763 46.4246 72.5773 49.0939 74.3699C49.7689 74.8232 50.4672 75.2414 51.1597 75.668C51.6056 75.9429 52.0563 75.9552 52.5053 75.6601C52.6827 75.5439 52.8724 75.447 53.0524 75.334C54.7965 74.242 56.4367 73.0093 58.0044 71.6781C60.1336 69.8701 62.0673 67.8778 63.7528 65.6458C67.0417 61.291 69.2274 56.4604 70.1079 51.0557C70.3919 49.3127 70.5453 47.559 70.5698 45.7958C70.5937 44.057 70.5852 42.3183 70.5858 40.5796C70.5858 38.876 70.581 37.1729 70.5746 35.4694C70.5724 34.95 70.3604 34.6517 69.8783 34.4572C69.7393 34.4013 69.5992 34.3475 69.4607 34.29C63.6756 31.8907 57.8894 29.4919 52.1048 27.0889C51.7409 26.9376 51.3899 26.9195 51.026 27.0724C49.8956 27.5476 48.7637 28.0185 47.6333 28.4926C44.6235 29.7551 41.6143 31.0181 38.605 32.2817C36.9382 32.9816 35.2719 33.6811 33.6067 34.3837C33.0788 34.6064 33.008 34.7316 33.0085 35.3111C33.0101 37.1745 33.0085 39.0374 33.0085 40.9008Z" fill="white"></path><path d="M55.7521 55.9426C55.7521 53.5918 55.758 51.241 55.7494 48.8901C55.7457 47.8551 56.1303 47.0065 56.8681 46.2895C57.7263 45.4553 58.5632 44.5992 59.408 43.7512C59.7468 43.4108 59.8726 43.015 59.8198 42.5233C59.6888 41.3055 59.8853 40.1725 60.824 39.2786C62.0881 38.0742 63.7272 38.03 65.0568 39.1641C66.7242 40.5864 66.6123 43.4571 64.8325 44.7068C63.9472 45.3285 62.9851 45.3994 61.9773 45.0536C61.8691 45.0163 61.7615 44.9764 61.6507 44.9482C61.3327 44.8677 61.0301 44.8933 60.7845 45.1341C59.8544 46.0471 58.9233 46.9591 58.0038 47.8828C57.6848 48.2035 57.5548 48.6105 57.5569 49.067C57.5617 50.158 57.5521 51.2489 57.5558 52.3399C57.5574 52.8518 57.672 52.9637 58.1812 52.968C58.8285 52.9733 59.4762 52.9626 60.1235 52.9717C60.4623 52.9765 60.7126 52.8412 60.923 52.5812C61.1734 52.2723 61.4126 51.9409 61.7141 51.6884C62.8136 50.7674 64.4474 50.9885 65.305 52.146C66.2666 53.4442 66.1664 55.2101 65.0696 56.2968C63.9323 57.4235 62.2223 57.3148 61.2325 56.0486C61.0637 55.8328 60.9065 55.6064 60.76 55.3752C60.5715 55.0769 60.3008 54.9427 59.9589 54.9406C59.3468 54.9368 58.7352 54.9352 58.1232 54.939C57.6762 54.9416 57.5596 55.0583 57.5596 55.5116C57.559 57.9514 57.5622 60.3906 57.5628 62.8304C57.5628 63.2619 57.737 63.6145 58.0188 63.9299C58.1477 64.0737 58.2745 64.2266 58.365 64.3955C58.5547 64.7508 58.4902 65.1391 58.2265 65.3986C57.9532 65.6676 57.5058 65.7512 57.175 65.5328C56.3535 64.9894 55.7729 64.2602 55.7633 63.2342C55.7409 60.8035 55.7558 58.3728 55.7558 55.942C55.7553 55.9426 55.7537 55.9426 55.7521 55.9426ZM61.7018 41.7717C61.6731 42.5377 62.2356 43.1993 62.942 43.2302C63.7458 43.2648 64.3121 42.7108 64.3568 41.8452C64.3952 41.1079 63.8188 40.4234 63.1369 40.3962C62.2926 40.3627 61.7349 40.897 61.7018 41.7717ZM63.2621 55.045C63.8486 55.0508 64.2562 54.663 64.2498 54.1048C64.2439 53.5859 63.8231 53.1768 63.293 53.1752C62.7736 53.1736 62.3645 53.5715 62.3555 54.0861C62.3464 54.6385 62.7252 55.0391 63.2621 55.045Z" fill="white"></path><path d="M47.8383 55.9426C47.8383 58.3734 47.8537 60.8041 47.8308 63.2348C47.8212 64.2608 47.2406 64.99 46.4191 65.5334C46.0889 65.7518 45.6414 65.6682 45.3676 65.3992C45.1039 65.1397 45.0389 64.7514 45.2291 64.3961C45.3191 64.2272 45.4464 64.0743 45.5753 63.9305C45.8571 63.6151 46.0313 63.2625 46.0313 62.831C46.0319 60.3912 46.0351 57.952 46.0345 55.5122C46.0345 55.0589 45.9179 54.9422 45.4709 54.9396C44.8589 54.9358 44.2473 54.9374 43.6352 54.9412C43.2933 54.9433 43.0232 55.077 42.8341 55.3759C42.6876 55.6076 42.5304 55.8334 42.3616 56.0492C41.3718 57.3154 39.6613 57.4241 38.5245 56.2974C37.4277 55.2107 37.3275 53.4443 38.2891 52.1466C39.1467 50.9891 40.7805 50.7685 41.88 51.689C42.1815 51.9415 42.4207 52.2729 42.6711 52.5818C42.8815 52.8418 43.1318 52.9766 43.4706 52.9723C44.1179 52.9633 44.7656 52.9744 45.4129 52.9686C45.9221 52.9643 46.0367 52.8519 46.0383 52.3405C46.042 51.2496 46.0324 50.1586 46.0372 49.0676C46.0393 48.6116 45.9093 48.2041 45.5903 47.8834C44.6708 46.9597 43.7397 46.0477 42.8096 45.1347C42.5645 44.8939 42.2614 44.8683 41.9434 44.9488C41.8326 44.977 41.725 45.017 41.6168 45.0542C40.609 45.4 39.6464 45.3291 38.7616 44.7075C36.9823 43.4583 36.8699 40.587 38.5373 39.1647C39.8669 38.0306 41.506 38.0748 42.7701 39.2792C43.7088 40.1731 43.9053 41.3062 43.7743 42.5239C43.7215 43.0156 43.8473 43.4114 44.1861 43.7518C45.0309 44.5998 45.8678 45.4559 46.726 46.2901C47.4632 47.0071 47.8478 47.8557 47.8446 48.8908C47.8367 51.2416 47.842 53.5924 47.842 55.9432C47.8409 55.9426 47.8393 55.9426 47.8383 55.9426ZM40.4572 40.3963C39.7758 40.4235 39.1994 41.108 39.2373 41.8452C39.282 42.7104 39.8483 43.2649 40.6521 43.2303C41.3585 43.1999 41.921 42.5378 41.8922 41.7717C41.8598 40.897 41.302 40.3627 40.4572 40.3963ZM41.2386 54.0862C41.2296 53.5711 40.8205 53.1731 40.3011 53.1753C39.771 53.1769 39.3502 53.586 39.3443 54.1048C39.3385 54.6631 39.746 55.0514 40.332 55.045C40.8695 55.0392 41.2482 54.6386 41.2386 54.0862Z" fill="white"></path><path d="M55.6568 37.1677C55.6216 38.6113 55.0314 39.7577 53.7508 40.4592C53.0785 40.8279 52.8068 41.3009 52.8095 42.0707C52.8329 49.1753 52.8281 56.2799 52.8308 63.3846C52.8313 64.6439 52.8612 65.9048 52.8196 67.163C52.7844 68.2401 52.2826 69.0903 51.3472 69.6534C50.9509 69.892 50.4922 69.8297 50.2301 69.5325C49.935 69.1974 49.9297 68.7931 50.2461 68.3999C50.5583 68.0121 50.8822 67.6355 50.9397 67.1145C50.9594 66.9387 50.9706 66.7613 50.9706 66.5845C50.9711 58.3798 50.9647 50.1752 50.9802 41.9705C50.9812 41.2791 50.7181 40.8428 50.1311 40.5184C49.1855 39.9958 48.566 39.1957 48.3364 38.1356C47.8484 35.8833 49.0182 33.9299 50.9216 33.3583C52.4158 32.9098 54.0944 33.5437 54.9648 34.8659C55.4256 35.5648 55.6727 36.3228 55.6568 37.1677ZM51.9002 38.8633C52.8984 38.8697 53.6751 38.0914 53.6804 37.0798C53.6852 36.1177 52.8809 35.2931 51.9422 35.2984C50.9594 35.3037 50.1508 36.0985 50.1502 37.059C50.1502 38.0978 50.8859 38.8563 51.9002 38.8633Z" fill="white"></path></svg>