<svg xmlns="http://www.w3.org/2000/svg" width="103" height="102" viewBox="0 0 103 102" fill="none"><rect width="103" height="102" rx="15" fill="#742092"></rect><path d="M26.8676 50.1914C26.8676 42.2778 26.8676 34.3642 26.8662 26.4507C26.8662 24.9455 28.0712 23.8462 29.7626 23.8434C34.0682 23.835 38.3738 23.835 42.6781 23.8337C47.7008 23.8323 52.725 23.8517 57.7464 23.817C58.5858 23.8114 59.2057 24.0699 59.7644 24.6606C62.0047 27.0316 64.2646 29.3846 66.5105 31.75C67.2902 32.5728 68.0935 33.3789 68.7981 34.2628C69.1053 34.6478 69.3332 35.2078 69.3471 35.6957C69.4055 37.9152 69.3721 40.1375 69.3791 42.3584C69.3804 42.8351 69.2859 43.234 68.755 43.3799C68.1713 43.5384 67.696 43.1756 67.6974 42.5669C67.7002 40.8088 67.6807 39.0507 67.7182 37.2926C67.7293 36.7436 67.5334 36.6366 67.0358 36.6435C64.7218 36.6727 62.405 36.6018 60.0951 36.6963C58.2509 36.7714 57.385 35.3593 57.3753 34.0404C57.3572 31.5179 57.3489 28.9954 57.385 26.4743C57.3933 25.8642 57.2266 25.6765 56.6137 25.6779C49.9245 25.6891 43.2354 25.6696 36.5462 25.6724C34.3017 25.6738 32.0571 25.6863 29.814 25.7488C28.7591 25.778 28.6174 25.9865 28.6174 27.0108C28.616 42.5377 28.6146 58.0632 28.6146 73.5902C28.6146 74.9911 28.9384 75.3247 30.3171 75.3247C37.6775 75.3274 45.038 75.3247 52.3998 75.3247C52.8167 75.3247 53.2378 75.3024 53.6478 75.358C54.1468 75.4261 54.5206 75.7791 54.3844 76.2572C54.2871 76.5977 53.9077 76.9688 53.5672 77.1008C53.1822 77.2482 52.7 77.1467 52.2608 77.1467C44.9462 77.1467 37.6317 77.1453 30.3171 77.1425C27.9767 77.1425 26.8954 76.0904 26.8871 73.7222C26.8704 69.1178 26.8857 64.5133 26.8871 59.9089C26.8884 56.6693 26.8871 53.4296 26.8871 50.19C26.8787 50.1914 26.8732 50.1914 26.8676 50.1914ZM59.0597 26.4173C58.9666 26.7092 58.9041 26.8148 58.9041 26.9176C58.918 29.2261 58.9319 31.5332 58.9652 33.8417C58.9749 34.5004 59.3669 34.7617 60.009 34.7603C62.0186 34.7548 64.0269 34.7742 66.0366 34.7728C66.2436 34.7728 66.4493 34.695 66.8218 34.6214C64.1839 31.8348 61.6656 29.1719 59.0597 26.4173Z" fill="white"></path><path d="M73.326 56.5164C75.5414 56.9139 76.2154 57.7325 76.2168 59.9172C76.2196 63.8963 76.2113 67.8767 76.2182 71.8557C76.2224 74.0766 74.8409 75.5317 72.6172 75.5442C68.7758 75.5665 64.933 75.5526 61.0916 75.5526C60.3272 75.5526 59.5642 75.5498 58.7998 75.5581C57.0236 75.5776 55.4045 74.1058 55.3808 72.3352C55.3405 69.2359 55.3683 66.1352 55.3683 63.0346C55.3683 61.6934 55.3211 60.3495 55.3906 59.0125C55.4684 57.5045 56.2161 56.7693 57.7254 56.622C58.166 56.5789 58.173 56.3468 58.1813 56.0202C58.2188 54.5415 58.1299 53.0432 58.3439 51.5909C59.0041 47.1143 63.1638 43.8914 68.0906 45.5633C71.2816 46.6474 73.2482 49.37 73.3205 52.7444C73.3483 54.0092 73.326 55.2753 73.326 56.5164ZM65.803 58.533C63.3278 58.533 60.8525 58.5302 58.3773 58.5344C57.3113 58.5358 57.0708 58.7776 57.0708 59.8394C57.0708 63.7698 57.0736 67.7016 57.0764 71.6319C57.0778 73.0162 57.6935 73.6819 59.0749 73.6875C63.6321 73.7083 68.1879 73.7069 72.7451 73.7027C73.7847 73.7014 74.4282 73.0676 74.4309 72.0127C74.4448 67.8961 74.4407 63.7809 74.4309 59.6643C74.4295 58.8332 74.1266 58.5386 73.2968 58.5358C70.7994 58.526 68.3005 58.533 65.803 58.533ZM65.7738 56.6498C65.7738 56.6415 65.7738 56.6345 65.7738 56.6262C67.5333 56.6262 69.2928 56.6151 71.0509 56.6345C71.4984 56.6387 71.6777 56.4983 71.6569 56.0383C71.5971 54.7458 71.6221 53.4477 71.5082 52.1607C71.2552 49.3074 68.7716 47.0059 65.778 46.9337C62.9803 46.8669 60.79 48.6348 60.2507 51.5061C59.9797 52.946 60.0409 54.447 59.9033 55.9146C59.8463 56.5261 60.0826 56.6665 60.6357 56.6595C62.3493 56.6359 64.0616 56.6498 65.7738 56.6498Z" fill="white"></path><path d="M42.9714 60.6512C45.6996 60.6498 48.4278 60.6581 51.1559 60.6442C51.716 60.6414 52.0996 60.7846 52.1886 61.4016C52.29 62.1021 51.9787 62.4857 51.2199 62.4913C49.8787 62.5024 48.5375 62.4801 47.1978 62.4801C43.2438 62.4815 39.2912 62.4871 35.3371 62.4885C35.1064 62.4885 34.8743 62.4871 34.6436 62.469C34.1072 62.4259 33.7806 62.1633 33.7833 61.5907C33.7861 60.9708 34.078 60.6581 34.7173 60.6553C37.4691 60.647 40.2209 60.6525 42.9714 60.6512Z" fill="white"></path><path d="M37.1399 38.9825C37.6041 38.4878 38.1614 37.9138 38.6978 37.3217C39.907 35.9889 41.0939 34.6324 42.3239 33.3205C42.5309 33.0995 42.9229 32.9202 43.2175 32.9355C43.9402 32.9744 44.2154 33.7305 43.7331 34.3072C42.8756 35.3357 41.9986 36.3461 41.1119 37.3495C40.0571 38.542 38.9855 39.7219 37.9154 40.9019C37.2302 41.6579 36.7646 41.6496 36.0836 40.8866C35.3609 40.0777 34.6285 39.2772 33.9155 38.46C33.4249 37.8971 33.4277 37.4287 33.91 37.016C34.4381 36.5643 34.8356 36.8867 35.2317 37.2522C35.8376 37.8151 36.4561 38.3655 37.1399 38.9825Z" fill="white"></path><path d="M37.1397 53.6159C36.7867 53.4074 36.4518 53.2893 36.228 53.0613C35.4678 52.2886 34.734 51.4867 34.0154 50.6736C33.6624 50.2748 33.4067 49.8161 33.8973 49.3311C34.2712 48.9628 34.8201 49.0239 35.3066 49.4992C35.7861 49.9662 36.2516 50.4485 36.7006 50.9446C36.9896 51.2657 37.2064 51.2546 37.4858 50.9307C38.8867 49.3033 40.3015 47.6883 41.7122 46.0692C41.9248 45.826 42.1236 45.5689 42.3529 45.3423C42.7685 44.9323 43.4105 44.8948 43.7872 45.2367C44.1444 45.5605 44.1291 46.1359 43.7177 46.6001C42.3557 48.14 40.9812 49.6702 39.615 51.2059C39.0771 51.8105 38.5657 52.4387 38.0084 53.0224C37.7846 53.2545 37.4691 53.3949 37.1397 53.6159Z" fill="white"></path><path d="M40.6391 68.6675C38.6725 68.6675 36.7073 68.6536 34.7408 68.6758C34.1432 68.6828 33.8096 68.484 33.804 67.86C33.7971 67.2054 34.1042 66.8677 34.7588 66.8663C38.7379 66.8593 42.7155 66.8593 46.6945 66.8663C47.3686 66.8677 47.6396 67.1623 47.6437 67.7738C47.6479 68.4396 47.2685 68.6744 46.6764 68.6758C44.664 68.68 42.6516 68.6772 40.6391 68.6772C40.6391 68.6744 40.6391 68.6717 40.6391 68.6675Z" fill="white"></path><path d="M51.9317 46.7378C50.1986 46.7378 48.4669 46.7391 46.7338 46.7364C46.057 46.735 45.7165 46.4473 45.7123 45.8914C45.7081 45.2771 46.0403 44.9796 46.7366 44.9783C50.1777 44.9741 53.6203 44.9713 57.0615 44.9657C57.5965 44.9644 58.1024 44.9894 58.1789 45.694C58.2581 46.4237 58.0093 46.7322 57.2672 46.7364C55.4882 46.7475 53.7092 46.7391 51.9317 46.7391C51.9317 46.7405 51.9317 46.7391 51.9317 46.7378Z" fill="white"></path><path d="M49.8633 39.2397C48.7987 39.2397 47.7341 39.2453 46.6695 39.2383C45.9857 39.2342 45.7036 38.9729 45.6869 38.3586C45.6689 37.7165 45.976 37.3371 46.6376 37.3315C48.8126 37.3135 50.9891 37.3149 53.1641 37.3399C53.8145 37.3468 54.155 37.754 54.1286 38.3628C54.1008 38.9979 53.7437 39.2495 53.128 39.2411C52.0398 39.2258 50.9529 39.237 49.8647 39.237C49.8633 39.2383 49.8633 39.2397 49.8633 39.2397Z" fill="white"></path><path d="M49.8453 54.7833C48.8071 54.7833 47.769 54.7916 46.7308 54.7805C46.0428 54.7735 45.7051 54.4497 45.7093 53.8438C45.7134 53.2197 46.0539 52.8528 46.6919 52.8501C48.7905 52.8431 50.8905 52.8431 52.9891 52.8626C53.7702 52.8695 54.1009 53.1655 54.1218 53.7798C54.144 54.4289 53.8563 54.7583 53.1656 54.7735C52.0593 54.7972 50.9516 54.7805 49.8439 54.7805C49.8453 54.7791 49.8453 54.7805 49.8453 54.7833Z" fill="white"></path><path d="M64.9343 69.0471C65.108 68.127 64.7856 67.521 63.9879 66.9623C62.9274 66.2188 62.7968 64.3662 63.5806 63.3169C64.3937 62.2287 66.0211 61.9451 67.2039 62.6859C68.3936 63.4308 68.8369 64.9999 68.1406 66.2841C67.9113 66.7066 67.5096 67.0735 67.108 67.3529C66.7202 67.6225 66.5326 67.8949 66.5562 68.3702C66.5882 68.9929 66.5562 69.6197 66.559 70.2437C66.5604 70.7232 66.3714 71.1067 65.8683 71.1095C65.3777 71.1137 64.9593 70.8816 64.9371 70.2937C64.9218 69.8795 64.9343 69.4626 64.9343 69.0471ZM65.8558 66.0353C66.4784 66.02 66.9398 65.5711 66.9231 64.9985C66.9065 64.4204 66.452 63.9687 65.9072 63.9868C65.2901 64.009 64.8523 64.4746 64.8495 65.1153C64.8468 65.6295 65.3054 66.0492 65.8558 66.0353Z" fill="white"></path></svg>