<svg xmlns="http://www.w3.org/2000/svg" width="103" height="103" viewBox="0 0 103 103" fill="none"><rect width="103" height="103" rx="15" fill="#742092"></rect><path d="M54.176 78.2391C46.0815 78.2652 41.107 76.7617 36.6584 73.7795C33.3044 71.5311 30.6568 68.6797 28.6617 65.2912C25.8199 60.464 24.6055 55.2967 24.9718 49.8183C25.4895 42.0914 28.608 35.4592 34.8768 30.3098C38.4511 27.3743 42.6973 25.6905 47.4391 25.0544C51.0864 24.5656 54.6813 24.6936 58.2088 25.6271C65.3863 27.5286 70.694 31.6371 74.2889 37.7365C76.4809 41.454 77.6787 45.4537 77.961 49.6489C78.3245 55.0613 77.1376 60.2121 74.3578 65.0104C72.3572 68.4621 69.7894 71.4747 66.3501 73.7533C61.9359 76.6777 57.0288 78.2556 54.176 78.2391ZM41.7321 63.3609C41.7321 62.7427 41.7321 62.3145 41.7321 61.8863C41.7362 56.1559 41.7376 50.4241 41.7459 44.6937C41.7472 43.4779 42.0199 43.2315 43.2921 43.2342C44.5918 43.2356 45.8902 43.2218 47.1899 43.248C47.6993 43.259 47.8935 43.1075 47.8604 42.616C47.8177 41.9771 47.8522 41.3328 47.8425 40.6912C47.8343 40.1446 48.1151 39.8981 48.6962 39.9009C50.4613 39.9105 52.2264 39.9174 53.9915 39.9091C54.7006 39.9064 55.0297 40.2465 55.0531 40.8715C55.0737 41.4209 55.0847 41.973 55.0503 42.521C55.0159 43.0525 55.2114 43.2425 55.8048 43.237C57.2009 43.2273 58.5984 43.2535 59.9918 43.3306C60.9804 43.3843 61.2007 43.6679 61.2007 44.6124C61.1993 50.5962 61.1952 56.5786 61.1965 62.5623C61.1965 62.8184 61.242 63.0732 61.2654 63.3292C61.3439 63.3609 61.4223 63.3926 61.5008 63.4229C62.2994 62.5417 63.2398 61.7404 63.8717 60.7642C67.4818 55.1783 68.0518 49.397 64.6965 43.5357C62.0805 38.966 58.005 36.3541 52.3765 36.0251C47.0109 35.7125 42.8129 37.7764 39.5402 41.6109C35.2196 46.6708 34.8878 54.5945 38.6025 60.0234C39.4121 61.2117 40.2878 62.3806 41.7321 63.3609ZM43.4545 45.0998C43.4545 47.0591 43.4545 48.8903 43.4545 50.7215C43.4545 55.1439 43.4573 59.5663 43.4531 63.9888C43.4531 64.3963 43.4972 64.724 43.9543 64.9567C48.9068 67.4818 53.8676 67.6732 58.8738 65.0861C59.3626 64.8328 59.5058 64.5422 59.5044 64.0548C59.4879 57.983 59.4892 51.9097 59.4837 45.8378C59.4837 45.5969 59.459 45.3545 59.4452 45.0998C54.0879 45.0998 48.8063 45.0998 43.4545 45.0998ZM37.4047 72.0158C42.5554 75.6726 48.3217 76.9132 54.5987 76.2069C58.6439 75.7511 62.3049 74.3357 65.6011 72.0226C63.6294 70.1198 61.7486 68.3065 59.8761 66.5001C59.503 66.7177 59.1863 66.938 58.838 67.1018C53.6377 69.5471 48.5117 69.218 43.4297 66.759C43.226 66.6598 42.7812 66.6956 42.6353 66.8374C40.9032 68.5131 39.2056 70.2231 37.4047 72.0158ZM65.484 30.9252C60.7325 27.6924 55.5074 26.3073 49.755 26.7066C45.2582 27.0177 41.0864 28.2142 37.4418 30.877C37.5837 31.0602 37.6553 31.1772 37.7516 31.2722C39.3391 32.8308 40.9418 34.3742 42.5073 35.9507C42.8446 36.2894 43.0704 36.2619 43.5 36.0994C45.1921 35.4578 46.8691 34.6854 48.6356 34.3288C52.4233 33.5646 56.021 34.3563 59.4025 36.0498C59.8706 36.2839 60.1446 36.1889 60.4696 35.8488C61.2213 35.0654 62.0061 34.3081 62.784 33.5467C63.6611 32.6917 64.5423 31.8408 65.484 30.9252ZM72.7138 63.953C77.2147 58.4483 77.1528 43.4215 72.6505 38.9922C72.5748 39.0445 72.4894 39.0913 72.4219 39.1546C70.7807 40.6939 69.1533 42.247 67.4942 43.7684C67.1294 44.103 67.212 44.3908 67.3579 44.7501C68.0752 46.5139 68.5282 48.3272 68.6205 50.2244C68.754 52.9602 68.3382 55.6065 67.3455 58.1798C67.2712 58.3726 67.2877 58.7127 67.4199 58.8421C69.1533 60.548 70.9171 62.2278 72.7138 63.953ZM30.1005 63.9144C31.8794 62.1892 33.6349 60.4998 35.3642 58.787C35.5129 58.6397 35.5955 58.2928 35.5184 58.1069C33.6597 53.6101 33.7037 49.1216 35.5487 44.64C35.7001 44.2737 35.6451 44.0768 35.3532 43.8125C34.3495 42.9065 33.3939 41.9524 32.3888 41.0464C31.6385 40.3704 30.8385 39.7412 30.0757 39.1037C25.7593 44.2352 25.7208 58.3685 30.1005 63.9144ZM41.3246 65.411C39.229 64.0232 37.8893 62.0791 36.4023 60.2107C35.9438 60.6995 35.5762 61.1235 35.1714 61.5159C33.9681 62.6835 32.7482 63.8387 31.5379 65.0007C31.2846 65.2431 30.9528 65.4813 31.2887 65.8668C32.6766 67.4556 34.0658 69.0445 35.4647 70.6251C35.7208 70.9143 35.9796 70.8757 36.2536 70.5866C36.7727 70.04 37.3358 69.5306 37.8632 68.9895C39.0115 67.8123 40.1487 66.6268 41.3246 65.411ZM41.2557 37.1362C39.5388 35.4578 37.7324 33.6913 35.8929 31.8945C35.6836 32.0487 35.4854 32.1506 35.3504 32.3021C34.2462 33.5275 33.102 34.7253 32.0708 36.0016C31.0147 37.3097 31.0368 37.373 32.2869 38.4772C33.7436 39.7659 35.2568 40.9996 36.6171 42.1465C37.9898 40.6636 39.5994 38.9261 41.2557 37.1362ZM61.5917 65.7704C63.2274 67.3317 64.9278 68.9688 66.6612 70.5756C66.7851 70.6899 67.2505 70.6733 67.3896 70.5508C69.1079 69.0431 70.6128 67.3703 71.7735 65.4C71.4912 65.1563 71.2158 64.9333 70.9597 64.6937C69.6269 63.449 68.2845 62.2126 66.9779 60.9432C66.5001 60.4792 66.2523 60.5866 65.9398 61.0877C65.6451 61.5586 65.2899 62.0061 64.9002 62.4136C63.8304 63.5316 62.7276 64.6221 61.5917 65.7704ZM71.7198 37.1389C70.6169 35.5321 69.2222 33.8868 67.5686 32.4384C67.2987 32.2029 67.0963 32.0845 66.7755 32.3819C65.0366 33.9887 63.2838 35.5831 61.5917 37.1293C63.2563 38.9206 64.8176 40.6031 66.4933 42.4081C68.1881 40.6994 69.9161 38.9577 71.7198 37.1389ZM53.5027 43.2259C53.3237 42.6904 53.8456 41.984 52.9823 41.9028C51.8918 41.8009 50.7807 41.8326 49.6847 41.8945C49.5264 41.9042 49.3323 42.3998 49.2868 42.6876C49.2621 42.8473 49.5071 43.1957 49.6393 43.2012C50.8812 43.2425 52.1245 43.2259 53.5027 43.2259Z" fill="white"></path><path d="M56.9035 57.6775C56.9035 58.2049 56.8897 58.7308 56.9076 59.2581C56.9255 59.8075 56.6088 60.076 56.0746 60.0994C55.2926 60.1324 54.5064 60.1379 53.7257 60.1063C53.1612 60.0842 52.9106 59.7015 52.8996 59.221C52.8734 58.1677 52.861 57.113 52.8941 56.0611C52.9134 55.4388 53.4049 55.2116 53.9969 55.1896C54.633 55.1662 55.2705 55.1744 55.9066 55.1937C56.624 55.2143 56.931 55.5021 56.9516 56.1671C56.9682 56.671 56.9544 57.175 56.9544 57.6789C56.9365 57.6775 56.92 57.6775 56.9035 57.6775ZM54.4059 57.6761C54.399 57.6761 54.3935 57.6761 54.3866 57.6761C54.3866 57.8813 54.3315 58.1057 54.4017 58.2861C54.4775 58.4802 54.673 58.633 54.8162 58.8038C54.958 58.6565 55.2031 58.5201 55.2237 58.3577C55.2857 57.8854 55.2884 57.4008 55.2457 56.9271C55.2347 56.7991 54.98 56.5981 54.8382 56.5981C54.6936 56.5995 54.4678 56.7853 54.4238 56.9285C54.3549 57.1626 54.4059 57.4256 54.4059 57.6761Z" fill="white"></path><path d="M52.9038 50.0565C52.9038 49.5993 52.8983 49.1409 52.9052 48.6837C52.9135 48.122 53.2549 47.8425 53.8277 47.8301C54.5368 47.815 55.2458 47.837 55.9549 47.848C56.5442 47.8563 56.8705 48.133 56.8815 48.6892C56.8994 49.6489 56.9283 50.6113 56.9036 51.571C56.8843 52.3282 56.6186 52.5444 55.8227 52.5582C55.261 52.5678 54.6979 52.5637 54.1347 52.5554C53.3224 52.543 52.9176 52.1768 52.8969 51.4292C52.8846 50.9721 52.8942 50.5149 52.8942 50.0565C52.8983 50.0565 52.9011 50.0565 52.9038 50.0565ZM55.462 50.2699C55.4056 50.2368 55.3477 50.2038 55.2913 50.1707C55.2913 50.0124 55.3519 49.8196 55.2761 49.704C55.1742 49.5456 54.9829 49.3749 54.8053 49.3474C54.6979 49.3309 54.5037 49.558 54.4252 49.7109C54.3592 49.8417 54.366 50.0317 54.406 50.179C54.4996 50.5149 54.1127 51.129 54.8452 51.0877C55.0669 51.0753 55.2569 50.5562 55.462 50.2699Z" fill="white"></path><path d="M50.0014 57.7256C50.0014 58.2501 50.0138 58.7761 49.9973 59.2993C49.9808 59.8128 49.6902 60.1075 49.1285 60.1199C48.3974 60.135 47.6635 60.1598 46.9338 60.1281C46.4395 60.1061 46.1118 59.8294 46.1036 59.3392C46.087 58.2667 46.0664 57.1927 46.1008 56.1215C46.1187 55.5832 46.4492 55.2183 47.0715 55.2059C47.7296 55.1935 48.3905 55.1949 49.0486 55.2211C49.6173 55.2445 49.9587 55.5281 49.9697 56.083C49.9808 56.631 49.9725 57.1776 49.9725 57.7256C49.9821 57.7256 49.9918 57.7256 50.0014 57.7256ZM48.4993 58.4277C48.4993 57.9596 48.5447 57.4612 48.4731 56.9779C48.4511 56.8251 48.1275 56.6351 47.9224 56.6103C47.7902 56.5952 47.5355 56.8278 47.49 56.9889C47.4171 57.2423 47.4914 57.53 47.4694 57.7999C47.4143 58.4828 47.7654 58.6343 48.4993 58.4277Z" fill="white"></path><path d="M46.0982 50.2645C46.0982 49.7386 46.0789 49.2112 46.1037 48.6866C46.1299 48.1414 46.481 47.8509 47.0482 47.8344C47.7077 47.8151 48.3686 47.8344 49.0295 47.8454C49.6615 47.855 49.9726 48.1868 49.9795 48.7541C49.9919 49.7372 49.985 50.7216 49.9726 51.7061C49.9644 52.2843 49.6794 52.5859 49.013 52.557C48.3535 52.5294 47.6926 52.5721 47.0317 52.5652C46.3419 52.5597 46.0624 52.2843 46.061 51.6372C46.061 51.4087 46.072 51.1801 46.0748 50.9516C46.0776 50.723 46.0748 50.4944 46.0748 50.2645C46.0817 50.2645 46.0899 50.2645 46.0982 50.2645ZM48.56 50.2769C48.4774 49.9988 48.4746 49.6821 48.3039 49.5196C48.1938 49.415 47.6306 49.5128 47.6238 49.5609C47.559 50.0373 47.5494 50.5247 47.5907 51.0025C47.5948 51.0507 48.1772 51.1677 48.2626 51.0727C48.4416 50.8731 48.4678 50.5536 48.56 50.2769Z" fill="white"></path></svg>