<svg xmlns="http://www.w3.org/2000/svg" width="103" height="102" viewBox="0 0 103 102" fill="none"><rect width="103" height="102" rx="15" fill="#742092"></rect><path d="M34.4631 40.6287C32.1877 39.2021 31.2109 37.2472 31.3512 34.7531C31.4462 33.0774 32.1326 31.6673 33.3639 30.5214C35.2734 28.7454 39.6316 28.4468 41.6195 30.9933C42.1821 31.7141 42.6403 32.5918 42.8796 33.4695C43.1135 34.3238 43.1603 35.2978 43.0062 36.1687C42.848 37.0642 42.4724 37.9846 41.9607 38.7371C41.4668 39.4648 40.6771 39.9917 40.0154 40.608C40.8931 40.9877 41.8616 41.4073 42.8067 41.8159C43.7449 41.1116 44.6529 40.2903 45.6902 39.6905C46.7261 39.092 47.8899 38.7165 49.0263 38.2322C48.8378 38.0864 48.5847 37.8773 48.3164 37.6874C44.4204 34.9223 43.9884 28.7288 47.469 25.4946C50.5505 22.6304 55.9309 23.559 58.0798 27.3256C60.1612 30.974 59.2037 35.2951 55.7741 37.737C55.5925 37.8663 55.4178 38.008 55.1193 38.2377C55.4591 38.3588 55.6778 38.4441 55.9007 38.5156C57.8088 39.1264 59.4885 40.1128 60.9289 41.5133C61.0843 41.6646 61.4351 41.7898 61.6071 41.7182C62.4009 41.3839 63.1616 40.9754 64.0407 40.542C61.8341 38.9022 60.7404 36.7836 61.1985 34.0982C61.4943 32.3621 62.3169 30.8667 63.9031 29.8996C65.8071 28.7371 70.3166 28.6064 72.1078 31.6467C73.5894 34.1629 73.8371 38.5651 69.7677 40.5847C70.0388 40.7195 70.2437 40.8639 70.4721 40.9286C73.9719 41.9122 76.2831 45.5606 76.2831 49.0782C76.2831 51.6205 76.2913 54.1628 76.2693 56.7051C76.2556 58.2776 75.5663 59.4965 74.1576 60.2187C73.4986 60.5571 73.24 61.0042 73.2249 61.7306C73.1712 64.4545 73.0763 67.1784 72.9896 69.9023C72.9497 71.1376 72.9057 72.3717 72.8424 73.6057C72.7778 74.8548 71.5424 76.1177 70.2864 76.159C68.8213 76.2071 67.3534 76.1947 65.8883 76.1837C65.2499 76.1782 64.8771 75.8233 64.8757 75.3033C64.8744 74.6663 65.2238 74.2976 65.9075 74.288C67.0989 74.2715 68.2902 74.2921 69.4816 74.2908C70.6647 74.2894 71.1531 73.8657 71.215 72.6743C71.303 70.9822 71.336 69.2873 71.3924 67.5938C71.4722 65.1905 71.574 62.7871 71.6236 60.3838C71.6414 59.4744 72.006 58.9641 72.8933 58.7013C74.0888 58.345 74.5098 57.7094 74.5112 56.4713C74.5139 53.8368 74.5813 51.1996 74.4754 48.5706C74.3764 46.0999 72.5838 43.453 69.6467 42.4928C67.275 41.7182 65.0491 42.0346 62.8865 43.1847C62.4215 43.4324 62.3637 43.68 62.6045 44.1615C63.1699 45.2896 63.6582 46.4658 63.6184 47.7589C63.6087 48.096 63.4271 48.5459 63.1712 48.7357C62.6045 49.1539 61.9854 48.8141 61.9359 48.096C61.8286 46.547 61.3182 45.1547 60.435 43.8836C58.6603 41.3275 56.1579 40.1059 53.1121 39.8913C51.1407 39.7524 49.2216 39.9697 47.4222 40.8515C44.6901 42.1915 42.9443 44.2729 42.5632 47.3683C42.5385 47.5732 42.4986 47.7768 42.4931 47.9818C42.4765 48.5679 42.2124 48.8925 41.5988 48.8403C41.0032 48.7894 40.6881 48.367 40.7899 47.858C41.0266 46.679 41.2962 45.4904 41.7227 44.3706C41.9565 43.7557 41.9139 43.5204 41.3498 43.2109C38.0867 41.4238 34.459 41.7375 32.0061 44.1422C30.6221 45.5 29.7871 47.1949 29.7169 49.1457C29.6302 51.593 29.6646 54.0459 29.6798 56.4974C29.6866 57.6104 30.2094 58.2556 31.2838 58.6298C32.4724 59.0438 32.6705 59.308 32.7256 60.5654C32.8989 64.4765 33.0709 68.3876 33.2428 72.2987C33.2442 72.3441 33.2442 72.3909 33.2497 72.4363C33.4203 74.1312 33.4024 74.3472 35.195 74.277C36.2928 74.2344 37.3947 74.2715 38.4939 74.2894C39.2423 74.3018 39.5628 74.5989 39.5711 75.2372C39.5793 75.8714 39.2381 76.1851 38.5049 76.1892C37.1072 76.1947 35.7095 76.1975 34.3117 76.1865C32.9883 76.1769 31.9332 75.2978 31.7392 73.9799C31.6167 73.1448 31.5727 72.2932 31.5425 71.4486C31.4269 68.1758 31.3127 64.9043 31.2412 61.6302C31.226 60.9175 31.0073 60.5172 30.3277 60.2242C28.8076 59.5694 28.0729 58.3202 28.0523 56.69C28.0193 54.1711 27.9519 51.6481 28.0551 49.1319C28.205 45.4354 30.1461 42.3456 33.7229 40.9368C33.9114 40.8612 34.0985 40.78 34.4631 40.6287ZM57.4621 31.3028C57.4813 29.9298 57.147 29.0177 56.246 27.748C54.5318 25.3336 50.4859 24.9016 48.4182 27.1922C46.4578 29.363 46.3574 33.2178 48.3233 35.379C49.2849 36.4355 50.4639 37.0051 51.8877 37.0202C55.0298 37.0546 57.4139 34.5976 57.4621 31.3028ZM67.1319 30.8612C64.6501 30.8887 62.7874 32.8188 62.8301 35.3198C62.87 37.6861 64.7739 39.6396 67.015 39.6134C69.5174 39.5845 71.4145 37.6544 71.4007 35.1493C71.3897 32.7968 69.4362 30.835 67.1319 30.8612ZM33.0378 35.3735C33.0035 37.6063 34.8923 39.6313 37.1471 39.5997C39.6055 39.5653 41.2522 37.913 41.4448 35.2263C41.6236 32.7253 39.7128 30.9726 36.9779 30.9176C34.8964 30.8763 33.0736 32.9357 33.0378 35.3735Z" fill="white"></path><path d="M37.791 61.6823C37.791 60.9724 37.7786 60.2626 37.7937 59.5527C37.8102 58.7975 38.1693 58.4109 38.9067 58.3476C39.362 58.3091 39.8215 58.3008 40.2783 58.2857C41.4669 58.2472 42.2772 56.7752 41.6361 55.7516C41.2976 55.2124 40.8492 54.7433 40.4626 54.2342C39.9027 53.4969 39.8931 53.1708 40.5011 52.483C41.3802 51.487 42.2772 50.5061 43.1947 49.5472C43.7918 48.9227 44.3311 48.9103 45.0052 49.4592C45.4853 49.8485 45.9393 50.2695 46.4001 50.6808C46.6959 50.9449 46.9449 50.8858 47.3191 50.7496C48.7154 50.2406 49.0264 49.2583 49.0057 47.8702C48.9851 46.4643 48.8709 45.6691 50.9675 45.8892C51.9662 45.9938 52.9815 45.9209 53.9899 45.9443C55.0065 45.9676 55.3463 46.3061 55.4055 47.3035C55.4385 47.8524 55.5004 48.3985 55.5142 48.9474C55.5293 49.5679 55.8498 49.8856 56.3712 50.2158C57.3205 50.817 58.0413 50.6629 58.8943 50.0026C60.5286 48.7383 60.5754 48.7906 61.9703 50.2708C62.6142 50.9532 63.2979 51.5998 63.9514 52.2725C64.5718 52.9108 64.5952 53.3717 64.0298 54.0733C63.5854 54.6263 63.0805 55.134 62.6706 55.7104C62.5179 55.925 62.4381 56.3239 62.5303 56.5578C63.2539 58.3847 62.8013 58.2816 64.8194 58.2981C66.2928 58.3105 66.5597 58.6159 66.5721 60.1126C66.5817 61.3494 66.5955 62.5861 66.5514 63.8215C66.517 64.7941 66.1277 65.1628 65.1537 65.266C64.7905 65.3045 64.4218 65.3114 64.0559 65.31C63.5194 65.3087 63.1631 65.5205 62.9375 66.0323C62.2386 67.6157 62.185 67.2525 63.2773 68.514C64.7052 70.1635 64.7259 70.1649 63.302 71.7868C62.6224 72.56 61.8892 73.2864 61.1821 74.0347C60.7432 74.4997 60.2769 74.5025 59.7788 74.131C59.2671 73.7486 58.7443 73.3785 58.2367 72.9892C57.8762 72.7127 57.5227 72.604 57.1127 72.8943C56.9848 72.9851 56.8238 73.0374 56.6711 73.08C55.9406 73.2809 55.5898 73.7018 55.6215 74.5107C55.6462 75.1669 55.5114 75.8314 55.422 76.489C55.3491 77.0241 55.0258 77.2718 54.4755 77.269C53.1232 77.2608 51.7723 77.2676 50.4199 77.2814C49.7747 77.2883 49.351 76.9994 49.2437 76.3693C49.1171 75.6264 49.0181 74.8767 48.9782 74.1255C48.9562 73.7101 48.8172 73.5202 48.4582 73.2877C47.2173 72.4871 46.1952 72.7636 45.1235 73.6454C44.1605 74.4378 43.6886 74.3663 42.8137 73.4955C42.0199 72.7044 41.2674 71.8708 40.4984 71.055C40.0389 70.568 39.9962 70.0562 40.3938 69.5059C40.7556 69.0052 41.0803 68.4755 41.4627 67.9926C41.8837 67.4616 41.9993 66.8935 41.808 66.2579C41.6278 65.6581 41.3224 65.2412 40.5905 65.3114C40.1145 65.3568 39.6275 65.332 39.1488 65.3004C38.2986 65.244 37.8047 64.7336 37.7827 63.8848C37.7635 63.1529 37.7786 62.4197 37.7786 61.6864C37.7814 61.6823 37.7869 61.6823 37.791 61.6823ZM44.415 51.2682C43.6969 51.8323 43.0434 52.3371 42.3982 52.8544C42.0584 53.1268 42.0185 53.4322 42.2937 53.7995C42.6637 54.2934 42.976 54.834 43.3585 55.3183C43.7134 55.7668 43.7588 56.2249 43.5579 56.7311C43.2965 57.3901 43.0118 58.0408 42.771 58.7067C42.4477 59.5995 41.8452 60.0287 40.8877 59.9599C40.5465 59.9352 40.2012 59.9654 39.8573 59.9599C39.4858 59.9544 39.3235 60.1181 39.3263 60.5006C39.3331 61.3934 39.3235 62.2876 39.3001 63.1791C39.2891 63.5739 39.4762 63.7046 39.838 63.706C40.4103 63.7073 40.9826 63.728 41.5563 63.7335C42.1864 63.739 42.6513 63.9357 42.8316 64.6236C42.9705 65.1532 43.1604 65.6773 43.3997 66.1685C43.8028 66.998 43.7244 67.712 43.1562 68.4521C42.7243 69.0134 42.0612 69.7315 42.1506 70.2722C42.2538 70.8954 43.0902 71.3838 43.5731 71.9616C43.939 72.4004 44.2031 72.3316 44.642 72.0083C46.8321 70.3988 46.2749 70.4758 48.6439 71.5255C48.6852 71.5433 48.7264 71.5667 48.7705 71.5805C49.9701 71.9368 50.508 72.7003 50.5671 73.988C50.6345 75.4476 50.7322 75.4435 52.1822 75.4435C53.8922 75.4435 53.9142 75.4448 54.0339 73.75C54.0958 72.8695 54.426 72.2394 55.2707 71.879C55.9847 71.575 56.6546 71.1623 57.3727 70.8679C57.6259 70.7647 58.0193 70.7702 58.2546 70.8995C58.8736 71.2407 59.4569 71.652 60.0196 72.0826C60.336 72.3247 60.5685 72.3605 60.8409 72.0565C61.3155 71.5282 61.8314 71.033 62.2606 70.4717C62.3803 70.3148 62.3514 69.9131 62.2317 69.7274C61.8864 69.1909 61.4655 68.7011 61.0638 68.2018C60.7116 67.7657 60.6703 67.2842 60.8491 66.7793C61.116 66.0254 61.4091 65.2798 61.6801 64.5273C61.8672 64.0072 62.2524 63.7734 62.7765 63.7445C63.2566 63.7183 63.7395 63.6922 64.2196 63.7101C64.7465 63.7293 64.9694 63.5326 64.9309 62.9878C64.8896 62.3949 64.913 61.7979 64.9061 61.2022C64.891 59.9929 65.0244 59.9283 63.6735 59.9489C63.3791 59.953 63.0847 59.8567 62.7889 59.8471C62.2634 59.8306 61.936 59.5623 61.7434 59.0974C61.4104 58.2953 61.0844 57.4919 60.7515 56.6899C60.5162 56.1245 60.6084 55.6278 61.017 55.1683C61.4572 54.6717 61.8933 54.1682 62.2881 53.6344C62.4078 53.4721 62.4972 53.0924 62.4092 53.0016C61.7268 52.3055 60.9963 51.6576 60.2672 50.9807C59.6014 51.4663 58.9672 51.9148 58.3495 52.3853C57.9175 52.7141 57.48 52.7554 57.0041 52.5077C56.2116 52.095 55.3766 51.7456 54.6461 51.2462C54.3022 51.011 54.0463 50.5116 53.9472 50.0865C53.8152 49.517 53.9184 48.8965 53.8276 48.3118C53.7945 48.1 53.507 47.7822 53.3144 47.7671C52.5633 47.7079 51.8025 47.7217 51.0514 47.7794C50.8753 47.7932 50.6043 48.0752 50.5781 48.2623C50.497 48.825 50.4887 49.4028 50.4997 49.9737C50.5149 50.74 50.1641 51.2049 49.4707 51.5035C48.908 51.747 48.3688 52.0551 47.8432 52.3729C47.2434 52.7361 46.6505 52.8503 46.0452 52.4334C45.4014 51.9946 44.7823 51.5324 44.415 51.2682Z" fill="white"></path><path d="M52.1767 67.9239C48.4073 68.0931 46.0507 64.8176 46.1085 61.5503C46.1745 57.8153 48.9438 55.1093 52.4738 55.1409C55.7989 55.1698 58.3811 58.4756 58.344 61.4237C58.2944 65.372 55.726 68.0244 52.1767 67.9239ZM52.4271 66.2717C54.8689 66.4464 56.7825 63.955 56.6395 61.3728C56.4991 58.847 54.4727 56.8481 52.0694 56.9307C49.5257 57.0174 47.6465 59.1291 47.7345 61.7993C47.824 64.4943 49.7926 66.3694 52.4271 66.2717Z" fill="white"></path></svg>