<svg xmlns="http://www.w3.org/2000/svg" xmlns:xlink="http://www.w3.org/1999/xlink" id="Calque_1" viewBox="0 0 437.86 73.81"><defs><linearGradient id="D&#xE9;grad&#xE9;_sans_nom" data-name="D&#xE9;grad&#xE9; sans nom" x1="424.48" y1="13.41" x2="424.48" y2="73.8" gradientTransform="translate(0 73.8) scale(1 -1)" gradientUnits="userSpaceOnUse"><stop offset="0" stop-color="#b9ce27"></stop><stop offset="1" stop-color="gold"></stop></linearGradient><linearGradient id="D&#xE9;grad&#xE9;_sans_nom_2" data-name="D&#xE9;grad&#xE9; sans nom 2" x1="409.63" y1="13.41" x2="409.63" y2="73.79" gradientTransform="translate(0 73.8) scale(1 -1)" gradientUnits="userSpaceOnUse"><stop offset="0" stop-color="#b1cb23"></stop><stop offset="1" stop-color="#00aab9"></stop></linearGradient></defs><g id="AMP"><g><g><g><g><g><path d="M53.37,20.71h2.35l6.36,14.57h-2.69l-1.47-3.49h-6.84l-1.49,3.49h-2.6l6.36-14.57h.02ZM57,29.54l-2.5-5.78-2.48,5.78h4.98Z" style="fill: #686869;"></path><path d="M64.31,29.14v-8.33h2.54v8.22c0,2.69,1.38,4.11,3.66,4.11s3.64-1.34,3.64-4.01v-8.33h2.54v8.2c0,4.32-2.44,6.49-6.22,6.49s-6.16-2.17-6.16-6.36h0Z" style="fill: #686869;"></path><path d="M84.37,23.17h-4.59v-2.36h11.73v2.36h-4.59v12.11h-2.56v-12.11h0Z" style="fill: #686869;"></path><path d="M93.6,28.09v-.04c0-4.07,3.14-7.48,7.58-7.48s7.54,3.37,7.54,7.44v.04c0,4.07-3.14,7.48-7.58,7.48s-7.54-3.37-7.54-7.44ZM106.06,28.09v-.04c0-2.81-2.05-5.14-4.92-5.14s-4.88,2.29-4.88,5.1v.04c0,2.81,2.04,5.12,4.92,5.12s4.88-2.27,4.88-5.08Z" style="fill: #686869;"></path><path d="M112.6,20.82h6.45c1.82,0,3.24.54,4.17,1.45.76.78,1.2,1.86,1.2,3.12v.04c0,2.38-1.43,3.8-3.43,4.38l3.91,5.47h-3.02l-3.55-5.04h-3.18v5.04h-2.54v-14.46h-.01ZM118.86,27.99c1.82,0,2.98-.95,2.98-2.42v-.04c0-1.55-1.12-2.4-3-2.4h-3.7v4.85h3.72Z" style="fill: #686869;"></path><path d="M128.42,20.82h2.54v14.46h-2.54v-14.46Z" style="fill: #686869;"></path><path d="M138.81,23.17h-4.59v-2.36h11.73v2.36h-4.59v12.11h-2.56v-12.11h0Z" style="fill: #686869;"></path><path d="M149.17,20.82h10.72v2.27h-8.18v3.76h7.25v2.27h-7.25v3.88h8.29v2.27h-10.83v-14.46h0ZM155.86,16.62l2.27.99-2.64,2h-1.94l2.31-3h0Z" style="fill: #686869;"></path></g><g><path d="M174.61,20.86h5.39c4.55,0,7.69,3.12,7.69,7.19v.04c0,4.07-3.14,7.23-7.69,7.23h-5.39v-14.46h0ZM177.15,23.17v9.83h2.85c3.04,0,5.02-2.04,5.02-4.88v-.04c0-2.83-1.98-4.92-5.02-4.92h-2.85Z" style="fill: #686869;"></path><path d="M191.52,20.86h10.72v2.27h-8.18v3.76h7.25v2.27h-7.25v3.88h8.29v2.27h-10.83v-14.46h0Z" style="fill: #686869;"></path><path d="M205.24,33.21l1.53-1.82c1.38,1.2,2.79,1.88,4.57,1.88,1.57,0,2.56-.74,2.56-1.82v-.04c0-1.03-.58-1.59-3.26-2.21-3.08-.74-4.81-1.65-4.81-4.32v-.04c0-2.48,2.07-4.19,4.94-4.19,2.11,0,3.78.64,5.25,1.82l-1.36,1.92c-1.3-.97-2.6-1.49-3.93-1.49-1.49,0-2.36.76-2.36,1.71v.04c0,1.12.66,1.61,3.45,2.27,3.06.74,4.63,1.84,4.63,4.24v.04c0,2.71-2.13,4.32-5.16,4.32-2.21,0-4.3-.76-6.03-2.31h-.02Z" style="fill: #686869;"></path></g></g><g><path d="M0,44.93h2.71l4.4,6.84,4.4-6.84h2.71v14.46h-2.54v-10.37l-4.57,6.82h-.08l-4.52-6.78v10.33H.01v-14.46h-.01Z" style="fill: #686869;"></path><path d="M23.7,44.83h2.35l6.36,14.57h-2.69l-1.47-3.49h-6.84l-1.49,3.49h-2.6l6.36-14.57h.02ZM27.33,53.65l-2.5-5.78-2.48,5.78h4.98Z" style="fill: #686869;"></path><path d="M35.54,44.93h6.45c1.82,0,3.24.54,4.17,1.45.76.79,1.2,1.86,1.2,3.12v.04c0,2.38-1.43,3.8-3.43,4.38l3.9,5.47h-3.02l-3.55-5.04h-3.18v5.04h-2.54v-14.46h0ZM41.8,52.1c1.82,0,2.98-.95,2.98-2.42v-.04c0-1.55-1.12-2.4-3-2.4h-3.7v4.85h3.72Z" style="fill: #686869;"></path><path d="M50.38,52.2v-.04c0-4.11,3.08-7.48,7.46-7.48,2.67,0,4.28.93,5.66,2.25l-1.63,1.88c-1.16-1.07-2.4-1.8-4.05-1.8-2.75,0-4.77,2.27-4.77,5.1v.04c0,2.83,2,5.12,4.77,5.12,1.78,0,2.91-.7,4.15-1.86l1.63,1.65c-1.51,1.57-3.16,2.56-5.87,2.56-4.21,0-7.35-3.28-7.35-7.44v.02Z" style="fill: #686869;"></path><path d="M66.92,44.93h2.54v6.01h6.9v-6.01h2.54v14.46h-2.54v-6.09h-6.9v6.09h-2.54v-14.46Z" style="fill: #686869;"></path><path d="M83.5,44.93h10.72v2.27h-8.18v3.76h7.25v2.27h-7.25v3.88h8.29v2.27h-10.83v-14.46h0ZM90.19,40.74l2.27.99-2.64,2h-1.94l2.31-3h0Z" style="fill: #686869;"></path><path d="M97.22,57.29l1.53-1.82c1.38,1.2,2.79,1.88,4.57,1.88,1.57,0,2.56-.74,2.56-1.82v-.04c0-1.03-.58-1.59-3.26-2.21-3.08-.74-4.81-1.65-4.81-4.32v-.04c0-2.48,2.07-4.19,4.94-4.19,2.11,0,3.78.64,5.25,1.82l-1.36,1.92c-1.3-.97-2.6-1.49-3.93-1.49-1.49,0-2.36.76-2.36,1.71v.04c0,1.12.66,1.61,3.45,2.27,3.06.74,4.63,1.84,4.63,4.24v.04c0,2.71-2.13,4.32-5.16,4.32-2.21,0-4.3-.76-6.03-2.31h-.02Z" style="fill: #686869;"></path></g><g><path d="M122.44,44.93h5.7c3.39,0,5.5,1.92,5.5,4.83v.04c0,3.24-2.6,4.94-5.78,4.94h-2.87v4.65h-2.54v-14.46h-.01ZM127.93,52.45c1.92,0,3.12-1.07,3.12-2.58v-.04c0-1.69-1.22-2.58-3.12-2.58h-2.95v5.21h2.95Z" style="fill: #686869;"></path><path d="M136.75,53.26v-8.33h2.54v8.22c0,2.69,1.38,4.11,3.66,4.11s3.64-1.34,3.64-4.01v-8.33h2.54v8.2c0,4.32-2.44,6.49-6.22,6.49s-6.16-2.17-6.16-6.36h0Z" style="fill: #686869;"></path><path d="M153.56,44.93h6.49c1.65,0,2.95.45,3.78,1.28.64.64.97,1.43.97,2.4v.04c0,1.74-.99,2.67-2.07,3.22,1.69.58,2.87,1.55,2.87,3.51v.04c0,2.58-2.13,3.97-5.35,3.97h-6.69v-14.46h0ZM162.26,49.02c0-1.14-.91-1.84-2.54-1.84h-3.66v3.84h3.47c1.63,0,2.73-.64,2.73-1.96v-.04ZM160.09,53.18h-4.03v3.97h4.21c1.74,0,2.79-.68,2.79-1.98v-.04c0-1.22-.97-1.94-2.98-1.94h0Z" style="fill: #686869;"></path><path d="M169.41,44.93h2.54v12.15h7.6v2.31h-10.14v-14.46Z" style="fill: #686869;"></path><path d="M182.82,44.93h2.54v14.46h-2.54v-14.46Z" style="fill: #686869;"></path><path d="M189.3,52.2v-.04c0-4.11,3.08-7.48,7.46-7.48,2.67,0,4.28.93,5.66,2.25l-1.63,1.88c-1.16-1.07-2.4-1.8-4.05-1.8-2.75,0-4.77,2.27-4.77,5.1v.04c0,2.83,2,5.12,4.77,5.12,1.78,0,2.91-.7,4.15-1.86l1.63,1.65c-1.51,1.57-3.16,2.56-5.87,2.56-4.21,0-7.35-3.28-7.35-7.44v.02Z" style="fill: #686869;"></path><path d="M205.24,57.29l1.53-1.82c1.38,1.2,2.79,1.88,4.57,1.88,1.57,0,2.56-.74,2.56-1.82v-.04c0-1.03-.58-1.59-3.26-2.21-3.08-.74-4.81-1.65-4.81-4.32v-.04c0-2.48,2.07-4.19,4.94-4.19,2.11,0,3.78.64,5.25,1.82l-1.36,1.92c-1.3-.97-2.6-1.49-3.93-1.49-1.49,0-2.36.76-2.36,1.71v.04c0,1.12.66,1.61,3.45,2.27,3.06.74,4.63,1.84,4.63,4.24v.04c0,2.71-2.13,4.32-5.16,4.32-2.21,0-4.3-.76-6.03-2.31h-.02Z" style="fill: #686869;"></path></g></g><g><g><path d="M437.86,60.39V20.78c0-11.23-5.79-20.78-16.7-20.78h-10.05c10.99,4.09,11.9,17.03,11.9,23.55v25.14l14.85,11.7Z" style="fill: url(#D&#xE9;grad&#xE9;_sans_nom);"></path><path d="M423.01,48.69l-14.85,11.7V23.56c0-6.53-.91-19.47-11.9-23.55h14.85c10.99,4.09,11.9,17.03,11.9,23.55v25.14h0Z" style="fill: url(#D&#xE9;grad&#xE9;_sans_nom_2);"></path></g><g><path d="M334.96,20.15c-5.63,0-10.42,2.9-12.7,6.9-2.27-4.52-6.34-6.9-11.67-6.9-4.51,0-8.27,1.86-10.66,4.66v-2.42c0-.83-.67-1.5-1.5-1.5h-3.71c-.83,0-1.5.67-1.5,1.5v35.75c0,.83.67,1.5,1.5,1.5h3.71c.83,0,1.5-.67,1.5-1.5v-21.16c0-8.38,4.64-11.03,8.72-11.03s8.94,2.2,8.94,11.3v20.89c0,.83.67,1.5,1.5,1.5h3.71c.83,0,1.5-.67,1.5-1.5v-21.16h0c0-8.38,4.64-11.03,8.72-11.03s8.94,2.2,8.94,11.3v20.89c0,.83.67,1.5,1.5,1.5h3.71c.83,0,1.5-.67,1.5-1.5v-21.08c0-10.98-5.28-16.92-13.71-16.92h0Z" style="fill: #686869;"></path><path d="M375.35,20.15c-5.65,0-9.35,2.05-12.15,5.51v-3.26c0-.83-.67-1.5-1.5-1.5h-3.71c-.83,0-1.5.67-1.5,1.5v49.91c0,.83.67,1.5,1.5,1.5h3.71c.83,0,1.5-.67,1.5-1.5v-17.42c2.8,3.46,6.49,5.51,12.15,5.51,11.67,0,15.95-8.49,15.95-20.12s-4.28-20.12-15.95-20.12h0ZM373.94,54.57c-6.62,0-10.73-4.31-10.73-13.94v-.74c0-9.62,4.11-13.94,10.73-13.94,8.07,0,10.58,6.24,10.58,14.31s-2.51,14.31-10.58,14.31Z" style="fill: #686869;"></path><path d="M269.83,20.15c-6.95,0-13.31,3.19-14.88,9.34-.25.96.45,1.91,1.45,1.91h3.26c.58,0,1.09-.33,1.35-.85,1.26-2.57,3.63-5.04,8.75-5.04,8.5,0,8.94,4.78,8.94,9.82l-11.25,1.58c-6.18.87-14.98,4-14.98,12.22,0,6.23,6.13,11.25,13.49,11.25s11.12-3.18,12.74-5.63v3.38c0,.83.67,1.5,1.5,1.5h3.71c.83,0,1.5-.67,1.5-1.5v-24.43c0-9.61-6.46-13.56-15.57-13.56h0ZM278.7,42.43c0,3.83-1.39,12.52-11.25,12.52-4.77,0-8.42-2.34-8.42-6.33,0-3.55,3.73-6.05,10.96-7.06,7.23-1.01,8.72-1.22,8.72-1.22v2.1h0Z" style="fill: #686869;"></path></g></g></g><line x1="234.35" y1="20.71" x2="234.35" y2="59.64" style="fill: none; stroke: #686869; stroke-miterlimit: 10; stroke-width: 2px;"></line></g></g></svg>